<svg xmlns="http://www.w3.org/2000/svg" viewBox="0 0 194.04 140.42"><defs><style>.cls-1{fill:#272525;}</style></defs><title>Palm</title><g id="Object"><path class="cls-1" d="M224.94,168.19l-1.52,2c1.36,1.64,2.94,3.45,4.75,5.36a47.59,47.59,0,0,1,5.73,1.34l.16-.09,0,.15q1.41.44,2.79,1c1.28-.43,3.18-1,3.18-1a8.76,8.76,0,0,0,1.6,3.18,39.67,39.67,0,0,1,16.25,16.64l.56,2.43c3.29-.68,5.29-44.21-30.71-40.54l-11.15,2a57.92,57.92,0,0,0,4.45,6.59C222.73,167.59,224.94,168.19,224.94,168.19Z" transform="translate(-178.1 -158.44)"/><path class="cls-1" d="M263.39,197.12h0a15,15,0,0,0,4.69-2.33l.85-.63,1.55-2.9,1.18,1a105.57,105.57,0,0,1,11-6.54l2.13-3.15,3.1.64c8.74-3.93,13.44-5.63,21.41-7.32l0-.07-1.77-1.67s5.55-.73,7.27-.13a89.16,89.16,0,0,0,13.5-6l-11.52-3.47a33.74,33.74,0,0,0-14.53-.88C271.33,168.58,259.08,198.38,263.39,197.12Z" transform="translate(-178.1 -158.44)"/><path class="cls-1" d="M214,164.5" transform="translate(-178.1 -158.44)"/><path class="cls-1" d="M215.79,169.53" transform="translate(-178.1 -158.44)"/><path class="cls-1" d="M258.67,202.46l-.2,1.42-.92-4c-21.81-40.42-79.45-12.75-79.45-12.75a12.77,12.77,0,0,0,2.29,2.9,13.65,13.65,0,0,0,7.79,3.52c-3.71,1.5,15.12,10.13,22.55,12.18l5.88-1.25,1.49,3.07c3.89.87,7.64,1.55,11.08,2.1-21.5,6.66-40,25.27-40,25.27a23.47,23.47,0,0,0,5.95,1.62l5.85-3.93-2.72,4.25c7.22.45,15.91-.86,24.26-2.81l4.55-5.94,2.26,4.2a236.67,236.67,0,0,0,25.21-8.55l-.83-3.56,2.85,2.81.5-.2a48.75,48.75,0,0,1,3,10,18.43,18.43,0,0,0,7.76-.17c-.07-3.12-.22-6.26-.49-9.39l2.2,1.89,3.27-1L271,226.34a185.77,185.77,0,0,0,19,14.2l2.37-2.26,3,5.57c6.62,3.89,13.76,7.27,20.27,8.67l-1.3-5.14,4.16,5.62a21.72,21.72,0,0,0,5.81,0s-15.39-35.51-41.05-39.85l1.87-2.77,1.47,2.1s-1.31,1.51,20.62-5.26l1.7-3.9,9,.36c13-4.59,34.42-9.14,43.73-16.1L358,183.87l7.57.51a37.11,37.11,0,0,0,6.56-7.49S308.91,164.1,258.67,202.46Zm-42.69-12c19.62-5.59,36.08,10.21,36.08,10.21C233,187,216,190.44,216,190.44Zm12,32.13c7.43-11.72,22.94-11.15,22.94-11.15C235.09,213.09,228,222.57,228,222.57Zm.82-9.2c11.09-8.33,25.4-2.32,25.4-2.32C238.8,207,228.82,213.37,228.82,213.37Zm-2.95-32.22c20.34,1.71,30.14,22.31,30.14,22.31C243.06,183.94,225.87,181.15,225.87,181.15Zm36,32.09-.06-.07c2.48-1.16,11.74-4.87,20,.1C281.77,213.27,273.55,209.14,261.86,213.24Zm2,.27s12.42-1.73,19.36,7.08C283.19,220.59,276.71,213.55,263.83,213.51Zm4.65-10.3s20.42-11.38,39.3-1.54C307.78,201.67,291.05,194.45,268.48,203.21Zm-5.57.75s20.53-19.45,46.1-13C309,190.92,286.84,187,262.91,204Z" transform="translate(-178.1 -158.44)"/><rect class="cls-1" x="81.92" y="73.13" width="7.57" height="67.29"/></g></svg>